<svg width="1026" height="281" viewBox="0 0 1026 281" fill="none" xmlns="http://www.w3.org/2000/svg">
<rect width="1026" height="281" rx="25" fill="#9FE6F0"/>
<path d="M373.053 121.52C369.853 114.72 364.493 111.36 356.893 111.36C352.493 111.36 348.893 112.8 345.933 115.76C343.053 118.72 341.613 122.32 341.613 126.56C341.453 136.88 350.093 141.12 356.733 143.92C361.453 145.92 365.053 148.48 365.053 151.76C365.053 156.64 362.653 159.04 357.773 159.04C352.493 159.04 348.813 155.28 346.653 147.68L338.253 152.96C339.133 157.36 341.373 161.12 344.893 164.16C348.413 167.12 352.653 168.64 357.533 168.64C368.413 168.64 375.453 162.08 375.453 151.2C375.533 141.52 366.653 137.36 359.933 134.4C355.373 132.24 351.533 129.6 351.533 126.08C351.533 123.12 353.773 120.96 356.893 120.96C360.013 120.96 362.653 122.96 364.653 126.88L373.053 121.52ZM396.684 112V168H407.084V112H396.684ZM467.921 127.92C467.921 118.32 461.761 112 450.881 112H430.481V168H440.881V143.84H446.321L461.361 168H472.961L457.441 142.96C464.161 140.96 467.921 135.36 467.921 127.92ZM440.881 134.24V121.6H450.961C455.361 121.6 457.521 123.68 457.521 127.92C457.521 132.16 455.361 134.24 450.961 134.24H440.881ZM492.325 168H527.765V158.4H502.725V142.96H522.165V133.36H502.725V121.6H526.965V112H492.325V168ZM580.845 148.96L560.285 112H549.325V168H559.725V131.04L580.285 168H591.245V112H580.845V148.96ZM659.173 168L640.213 112H629.813L610.853 168H622.053L626.133 154.8H643.893L647.973 168H659.173ZM640.933 145.2H629.093L635.013 125.76L640.933 145.2ZM751.678 112H740.158L727.598 153.44L715.038 112H703.518L722.318 168H732.878L751.678 112ZM779.589 114.4C771.829 118.32 766.309 127.52 766.309 140C766.309 146.24 767.509 151.6 769.989 156C775.029 164.88 783.029 168.64 792.709 168.64C797.589 168.64 801.909 167.68 805.829 165.68C813.589 161.6 819.109 152.48 819.109 140C819.109 133.76 817.829 128.4 815.349 124C810.469 115.12 802.389 111.36 792.709 111.36C787.829 111.36 783.509 112.4 779.589 114.4ZM803.989 125.76C807.029 128.96 808.549 133.68 808.549 140C808.549 146.32 807.029 151.04 803.989 154.24C801.029 157.44 797.269 159.04 792.709 159.04C788.149 159.04 784.389 157.44 781.349 154.24C778.389 151.04 776.869 146.32 776.869 140C776.869 133.68 778.389 128.96 781.349 125.76C784.389 122.56 788.149 120.96 792.709 120.96C797.269 120.96 801.029 122.56 803.989 125.76ZM840.419 112V168H850.819V112H840.419ZM874.216 168H908.376V158.4H884.616V112H874.216V168ZM929.731 168H965.171V158.4H940.131V142.96H959.571V133.36H940.131V121.6H964.371V112H929.731V168Z" fill="#072A3F"/>
<path fill-rule="evenodd" clip-rule="evenodd" d="M191.246 262.317C238.518 243.827 272 197.823 272 144C272 73.8598 215.14 17 145 17C102.427 17 64.7464 37.9481 41.7038 70.099C64.6786 40.8145 100.392 22 140.5 22C209.812 22 266 78.1883 266 147.5C266 198.752 235.278 242.828 191.246 262.317Z" fill="#072A3F"/>
<path fill-rule="evenodd" clip-rule="evenodd" d="M77.1483 254.355C49.079 232.685 31 198.704 31 160.5C31 95.0543 84.0543 42 149.5 42C160.437 42 171.028 43.4817 181.083 46.2552C167.082 40.2968 151.676 37 135.5 37C71.1588 37 19 89.1588 19 153.5C19 196.579 42.3825 234.198 77.1483 254.355Z" fill="#072A3F"/>
<path fill-rule="evenodd" clip-rule="evenodd" d="M136.948 159.9C142.528 154.543 147.977 148.562 153.147 142.025C182.56 104.845 192.421 63.0545 176.663 45.6412C218.573 58.6926 249 97.7931 249 144C249 165.01 242.71 184.55 231.909 200.841C232.328 198.517 232.407 196.178 232.123 193.841C229.117 169.094 186.517 153.908 136.948 159.9Z" fill="#072A3F"/>
<path d="M80.1504 188.158C83.8942 188.158 86.4907 188.382 87.9399 188.831C89.3892 189.262 90.1138 190.107 90.1138 191.367C90.1138 192.523 89.6479 193.549 88.7163 194.446C85.0933 192.79 81.729 191.962 78.6235 191.962C76.4325 191.962 74.8797 192.402 73.9653 193.282C73.0682 194.144 72.6196 195.343 72.6196 196.879C72.6196 198.483 73.1545 199.76 74.2241 200.709C75.311 201.658 77.3641 202.607 80.3833 203.556C83.9546 204.625 86.6546 205.859 88.4834 207.256C90.3294 208.637 91.3042 210.879 91.4077 213.985C91.4077 217.453 90.2173 220.075 87.8364 221.852C85.4728 223.629 81.8498 224.518 76.9673 224.518C73.5685 224.518 70.9893 224.276 69.2295 223.793C67.4697 223.31 66.5898 222.413 66.5898 221.102C66.5898 219.911 67.0902 218.859 68.0908 217.944C71.5068 219.808 75.0609 220.739 78.7529 220.739C81.2891 220.739 83.092 220.325 84.1616 219.497C85.2313 218.669 85.7661 217.392 85.7661 215.667C85.7661 213.597 84.9897 212.044 83.437 211.009C81.9015 209.974 79.443 208.921 76.0615 207.852C72.7835 206.851 70.4458 205.6 69.0483 204.099C67.6681 202.581 66.978 200.597 66.978 198.147C66.978 195.093 68.1081 192.669 70.3682 190.875C72.6455 189.063 75.9062 188.158 80.1504 188.158Z" fill="#072A3F"/>
<path d="M101.5 193.955C100.379 193.955 99.5509 193.722 99.0161 193.256C98.4813 192.79 98.2139 192.117 98.2139 191.237C98.2311 190.288 98.5762 189.529 99.249 188.96C99.9219 188.391 100.871 188.106 102.096 188.106C103.303 188.106 104.166 188.356 104.684 188.856C105.201 189.34 105.46 189.995 105.46 190.823C105.46 191.755 105.141 192.514 104.502 193.101C103.864 193.67 102.863 193.955 101.5 193.955ZM105.175 221.334H107.918C108.143 221.783 108.255 222.266 108.255 222.784C108.255 223.25 108.16 223.569 107.97 223.741C107.78 223.914 107.41 224 106.857 224H96.687C96.48 223.448 96.3765 222.93 96.3765 222.447C96.3765 222.068 96.4627 221.792 96.6353 221.619C96.825 221.429 97.1442 221.334 97.5928 221.334H99.5078C99.6286 218.936 99.689 216.124 99.689 212.898C99.689 208.964 99.6545 206.342 99.5854 205.031C99.5337 203.702 99.3957 202.788 99.1714 202.288C98.9471 201.787 98.6279 201.477 98.2139 201.356C97.8171 201.235 97.3167 201.175 96.7129 201.175C96.4886 200.812 96.3765 200.39 96.3765 199.907C96.3765 199.199 96.7129 198.768 97.3857 198.613C98.0586 198.458 99.3612 198.38 101.293 198.38C102.656 198.38 103.579 198.449 104.062 198.587C104.546 198.708 104.822 198.949 104.891 199.312C104.96 199.657 104.994 200.26 104.994 201.123V212.898C104.994 216.124 105.055 218.936 105.175 221.334Z" fill="#072A3F"/>
<path d="M112.421 199.674C112.421 199.208 112.603 198.915 112.965 198.794C113.327 198.656 115.613 198.518 119.823 198.38C119.926 199.174 119.926 200.235 119.823 201.563C121.738 200.269 123.575 199.372 125.335 198.872C127.112 198.371 128.725 198.121 130.174 198.121C130.657 198.121 130.977 198.181 131.132 198.302C131.304 198.406 131.391 198.647 131.391 199.027C131.391 199.769 131.27 200.562 131.028 201.408C130.804 202.253 130.528 202.788 130.2 203.012C129.872 203.236 129.329 203.409 128.57 203.53C127.811 203.651 127.362 203.676 127.224 203.607C127.103 203.538 126.715 203.064 126.06 202.184C124.524 202.184 123.282 202.676 122.333 203.659C121.384 204.625 120.91 206.583 120.91 209.534C120.927 214.83 120.996 218.764 121.117 221.334H124.766C124.973 221.783 125.076 222.266 125.076 222.784C125.076 223.25 124.981 223.569 124.792 223.741C124.602 223.914 124.239 224 123.705 224H112.758C112.534 223.448 112.421 222.93 112.421 222.447C112.421 222.068 112.516 221.792 112.706 221.619C112.896 221.429 113.206 221.334 113.638 221.334H115.423C115.561 218.764 115.63 215.4 115.63 211.242C115.63 206.152 115.432 203.202 115.035 202.391C114.638 201.58 113.879 201.175 112.758 201.175C112.534 200.692 112.421 200.191 112.421 199.674Z" fill="#072A3F"/>
<path d="M145.831 201.459C144.106 201.459 142.795 202.081 141.897 203.323C141 204.548 140.509 206.471 140.422 209.094H143.088C145.917 209.094 147.841 209.042 148.859 208.938C149.894 208.818 150.489 208.628 150.645 208.369C150.817 208.11 150.903 207.627 150.903 206.92C150.903 205.212 150.472 203.875 149.609 202.909C148.747 201.943 147.487 201.459 145.831 201.459ZM146.814 197.992C150.023 197.992 152.404 198.751 153.957 200.269C155.51 201.787 156.286 204.289 156.286 207.774C156.286 209.309 156.01 210.379 155.458 210.983C154.906 211.587 153.698 211.889 151.835 211.889H140.396C140.431 214.701 140.992 216.909 142.079 218.514C143.183 220.118 145.124 220.92 147.901 220.92C150.489 220.92 152.896 220.248 155.122 218.902C155.863 219.644 156.234 220.429 156.234 221.257C156.234 222.413 155.277 223.224 153.362 223.689C151.464 224.155 149.316 224.388 146.918 224.388C142.501 224.388 139.327 223.457 137.395 221.593C135.479 219.713 134.522 216.556 134.522 212.122C134.522 207.757 135.6 204.315 137.757 201.796C139.931 199.26 142.95 197.992 146.814 197.992Z" fill="#072A3F"/>
<path d="M168.527 201.434C170.235 200.295 171.917 199.458 173.573 198.923C175.247 198.389 176.739 198.121 178.05 198.121C180.345 198.121 182.07 198.656 183.226 199.726C184.399 200.778 184.986 202.797 184.986 205.781C184.986 215.063 185.115 219.98 185.374 220.532C185.65 221.084 186.271 221.352 187.237 221.334C187.427 221.835 187.522 222.335 187.522 222.835C187.522 223.301 187.375 223.612 187.082 223.767C186.789 223.922 186.245 224 185.452 224C183.054 224 181.587 223.974 181.052 223.922C180.517 223.853 180.155 223.672 179.965 223.379C179.776 223.068 179.681 222.559 179.681 221.852V210.698C179.681 207.144 179.301 204.781 178.542 203.607C177.8 202.434 176.592 201.848 174.919 201.848C173.487 201.848 172.245 202.253 171.192 203.064C170.157 203.875 169.64 205.333 169.64 207.438V212.898C169.64 215.952 169.7 218.764 169.821 221.334H172.693C172.9 221.783 173.004 222.266 173.004 222.784C173.004 223.25 172.909 223.569 172.719 223.741C172.529 223.914 172.167 224 171.632 224H161.462C161.238 223.448 161.125 222.93 161.125 222.447C161.125 222.068 161.22 221.792 161.41 221.619C161.6 221.429 161.91 221.334 162.342 221.334H164.127C164.265 218.591 164.334 215.227 164.334 211.242C164.334 206.152 164.136 203.202 163.739 202.391C163.342 201.58 162.583 201.175 161.462 201.175C161.238 200.692 161.125 200.191 161.125 199.674C161.125 199.208 161.307 198.915 161.669 198.794C162.031 198.656 164.317 198.518 168.527 198.38C168.63 199.174 168.63 200.191 168.527 201.434Z" fill="#072A3F"/>
<path d="M207.785 221.93C206.336 222.775 204.844 223.422 203.308 223.871C201.79 224.302 200.298 224.518 198.831 224.518C196.502 224.518 194.768 223.974 193.629 222.887C192.491 221.783 191.921 220.153 191.921 217.996C191.921 215.356 192.862 213.338 194.742 211.94C196.623 210.543 199.53 209.844 203.463 209.844H207.268C207.164 206.808 206.724 204.694 205.948 203.504C205.189 202.313 203.834 201.718 201.885 201.718C200.85 201.718 199.858 201.822 198.909 202.029C198.408 203.029 198.106 203.564 198.003 203.633C197.917 203.702 197.425 203.858 196.528 204.099C195.631 204.323 195.001 204.28 194.639 203.97C194.294 203.642 193.931 203.055 193.552 202.21C193.189 201.365 193.008 200.683 193.008 200.166C193.008 199.82 193.146 199.553 193.422 199.363C193.716 199.174 194.88 198.941 196.916 198.665C198.952 198.389 201.117 198.25 203.412 198.25C206.465 198.25 208.717 198.777 210.166 199.829C211.632 200.882 212.366 202.814 212.366 205.626V213.597C212.366 217.289 212.521 219.54 212.832 220.351C213.159 221.162 213.694 221.49 214.436 221.334C214.643 221.714 214.747 222.085 214.747 222.447C214.747 223.034 214.376 223.482 213.634 223.793C212.909 224.104 211.926 224.259 210.684 224.259C210.08 224.259 209.614 224.181 209.286 224.026C208.976 223.888 208.475 223.189 207.785 221.93ZM207.268 213.183C205.784 212.924 204.248 212.794 202.661 212.794C200.694 212.794 199.314 213.122 198.521 213.778C197.744 214.433 197.356 215.469 197.356 216.883C197.356 218.264 197.701 219.307 198.391 220.015C199.098 220.705 200.185 221.05 201.652 221.05C202.791 221.05 203.852 220.826 204.835 220.377C205.818 219.928 206.465 219.307 206.776 218.514C207.104 217.703 207.268 216.435 207.268 214.709V213.183Z" fill="#072A3F"/>
</svg>
